<svg xmlns="http://www.w3.org/2000/svg" width="150" height="150" viewBox="0 0 150 150" fill="none">
<path d="M21.0938 98.8291H28.125V112.5L45.3117 98.8291H96.0938C98.6836 98.8291 100.781 96.7314 100.781 94.1416V33.2041C100.781 30.6143 98.6836 28.5166 96.0938 28.5166H21.0938C18.5039 28.5166 16.4062 30.6143 16.4062 33.2041V94.1416C16.4062 96.7291 18.5039 98.8291 21.0938 98.8291Z" fill="#B31F24"/>
<path d="M128.906 119.923H121.875V133.594L104.688 119.923H53.9062C51.3164 119.923 49.2188 117.825 49.2188 115.235V54.2979C49.2188 51.708 51.3164 49.6104 53.9062 49.6104H128.906C131.496 49.6104 133.594 51.708 133.594 54.2979V115.235C133.594 117.823 131.496 119.923 128.906 119.923Z" fill="#151C30"/>
<path d="M72.6562 72.6562H110.156" stroke="white" stroke-width="2" stroke-miterlimit="10" stroke-linecap="square"/>
<path d="M72.6562 84.375H110.156" stroke="white" stroke-width="2" stroke-miterlimit="10" stroke-linecap="square"/>
<path d="M72.6562 96.0938H110.156" stroke="white" stroke-width="2" stroke-miterlimit="10" stroke-linecap="square"/>
<script xmlns=""/></svg>