<svg id="Layer_1" width="15%" version="1.1" xmlns="http://www.w3.org/2000/svg" xmlns:xlink="http://www.w3.org/1999/xlink" viewBox="0 0 24 24" class="auth-logo inline" style="margin-bottom: -15px;"><path d="M15.1,16.5h5c0.6,0,1,0.4,1,1v3c0,0.6-0.4,1-1,1h-5c-0.6,0-1-0.4-1-1v-3C14.1,16.9,14.5,16.5,15.1,16.5z" class="st0 [stroke-linecap: round] [stroke-linejoin: round] fill-none stroke-slate-900" style=" fill: none; stroke: #000; stroke-width: 1px;"></path><path d="M15.8,16.1v-1.5c0-1,0.8-1.8,1.7-1.8s1.8,0.8,1.8,1.7c0,0,0,0,0,0v1.5" class="st0 [stroke-linecap: round] [stroke-linejoin: round] fill-none stroke-slate-900" style=" fill: none; stroke: #000; stroke-width: 1px;"></path><line x1="17.6" y1="18.5" x2="17.6" y2="19.5" class="st0 [stroke-linecap: round] [stroke-linejoin: round] fill-none stroke-slate-900"></line><path d="M19.5,10.5c0.1-1.3,0.2-2.7,0-4.1L19.4,5l-7.8-2.8L3.7,5L3.6,6.4C3.5,6.9,2.2,17.9,10.8,21l0.8,0.3" class="st1 [stroke-linecap: round] [stroke-linecap: round] [stroke-linejoin: round] fill-none stroke-primary text-[40px]" style=" fill: none; stroke: #000; stroke-width: 1px;"></path><polyline points="8.4,10.9 10.7,13.7 14.7,8.8 " class="st1 [stroke-linecap: round] [stroke-linecap: round] [stroke-linejoin: round] fill-none stroke-primary text-[40px]"  style=" fill: none; stroke: #000; stroke-width: 1px;"></polyline></svg>