
<svg width="144" height="144" viewBox="0 0 144 144" fill="none" xmlns="http://www.w3.org/2000/svg">
<path d="M124.875 3.37061C126.739 3.37061 128.25 4.88204 128.25 6.74617V137.255C128.25 139.118 126.739 140.63 124.875 140.63H19.125C17.2609 140.63 15.75 139.118 15.75 137.255V33.754C15.75 32.7297 16.2062 31.8117 16.9267 31.193L43.7861 4.36004C44.442 3.70698 45.3009 3.37061 46.1593 3.37061H124.875V3.37061ZM33.75 115.872H110.199V120.372H33.75V115.872ZM33.75 73.6831H63V78.1831H33.75V73.6831ZM33.75 87.7467H110.25V92.2467H33.75V87.7467ZM33.7753 101.809H110.224V106.309H33.7753V101.809ZM49.5174 10.1212L49.4865 33.754C49.4865 35.6109 47.9813 37.1161 46.1244 37.1161L22.4994 37.129V133.88H121.499V10.1212H49.5174ZM27.2649 30.379H42.7674L42.7877 14.8709L27.2649 30.379Z" fill="#151C30"/>
<path d="M77.0603 30.9336L77.0625 35.4336C77.0625 35.7424 77.3151 35.9961 77.625 35.9961H80.6344C81.5794 35.9961 83.1482 35.9292 83.9059 35.2767C84.4661 34.7946 84.5606 33.7056 84.5606 33.0126C84.5606 32.3393 84.4791 31.5028 83.9222 31.0354C83.1808 30.4122 81.5456 30.3717 80.6316 30.3717H77.6222C77.3139 30.3717 77.0603 30.6259 77.0603 30.9336ZM96.5953 52.5088L100.867 45.8179C100.973 45.6514 101.144 45.558 101.342 45.558H111.124C111.337 45.558 111.521 45.6672 111.621 45.8556C111.721 46.0435 111.71 46.2572 111.591 46.4338L101.798 60.9733C101.668 61.1657 101.666 61.407 101.797 61.5994L112.404 77.3083C112.522 77.485 112.533 77.6982 112.432 77.886C112.331 78.0739 112.149 78.1825 111.936 78.1825H101.533C101.332 78.1825 101.165 78.0812 101.054 77.9142L96.1892 70.6309C95.9619 70.2912 95.4709 70.2715 95.2419 70.6101L90.3099 77.9344C90.2025 78.0947 90.0354 78.1825 89.8431 78.1825H79.8806C79.6674 78.1825 79.4852 78.0728 79.3851 77.886C79.2838 77.6982 79.2951 77.485 79.4137 77.3083L89.8026 61.767C89.9331 61.5707 89.9319 61.326 89.7958 61.1337L77.625 43.8711H77.0625V55.687C77.0625 55.9958 76.8088 56.2495 76.5 56.2495H68.067C67.7593 56.2495 67.5045 55.9969 67.5045 55.687L67.5 22.4961C67.5 22.1862 67.7526 21.9336 68.0625 21.9336H82.3523C89.1866 21.9336 94.2502 25.8919 94.2502 33.012C94.2502 36.9962 92.4542 40.5276 89.2119 42.457C89.0769 42.538 88.9881 42.6578 88.9526 42.813C88.9166 42.9672 88.9386 43.1168 89.0286 43.2467L95.4855 52.5336C95.7195 52.8711 96.3698 52.861 96.5953 52.5088Z" fill="#B31F24"/>
</svg>
