
<svg width="146" height="146" viewBox="0 0 146 146" fill="none" xmlns="http://www.w3.org/2000/svg">
<path d="M47.0305 86.5493C39.507 86.5493 33.4023 92.6539 33.4023 100.182C33.4023 107.71 39.507 113.815 47.0305 113.815C54.5587 113.815 60.6633 107.71 60.6633 100.182C60.6633 92.6539 54.5587 86.5493 47.0305 86.5493ZM47.0305 106.081C43.7729 106.081 41.1312 103.444 41.1312 100.182C41.1312 96.9199 43.7775 94.2828 47.0305 94.2828C50.2836 94.2828 52.9298 96.9199 52.9298 100.182C52.9298 103.444 50.2882 106.081 47.0305 106.081Z" fill="#151C30"/>
<path d="M37.9508 85.0347H24.8564V100.105C24.8564 101.683 26.1476 102.974 27.7263 102.974H29.5878C29.4418 102.066 29.3459 101.14 29.3459 100.187C29.3459 93.749 32.8043 88.1326 37.9508 85.0347Z" fill="#151C30"/>
<path d="M138.819 77.0216H143.719V72.8332C143.719 71.2546 142.93 68.946 141.958 67.7004L141.118 66.6237H123.708L116.554 49.6375H127.937L124.315 44.97C123.343 43.7245 121.262 42.707 119.684 42.707H99.2346C97.656 42.707 96.3648 43.9982 96.3648 45.5768V85.0333H56.1099C61.2518 88.1358 64.7147 93.7477 64.7147 100.181C64.7147 101.134 64.6189 102.061 64.4729 102.969H99.9966C99.8506 102.061 99.7547 101.134 99.7547 100.181C99.7547 90.4308 107.689 82.492 117.439 82.492C127.189 82.492 135.123 90.4308 135.123 100.181C135.123 101.134 135.027 102.061 134.881 102.969H140.845C142.423 102.969 143.714 101.677 143.714 100.099V85.1565H138.814C137.227 85.1565 135.944 83.8653 135.944 82.2867V79.8914C135.949 78.3037 137.231 77.0216 138.819 77.0216ZM103.66 66.6237V49.6375H111.585L118.744 66.6237H103.66V66.6237Z" fill="#151C30"/>
<path d="M117.443 86.5493C109.915 86.5493 103.81 92.6539 103.81 100.182C103.81 107.71 109.915 113.815 117.443 113.815C124.967 113.815 131.071 107.71 131.071 100.182C131.071 92.6539 124.967 86.5493 117.443 86.5493ZM117.443 106.081C114.185 106.081 111.539 103.444 111.539 100.182C111.539 96.9199 114.185 94.2828 117.443 94.2828C120.696 94.2828 123.342 96.9199 123.342 100.182C123.342 103.444 120.696 106.081 117.443 106.081Z" fill="#151C30"/>
<path d="M24.8565 80.7641H92.0986V35.0524C92.0986 33.4738 90.8074 32.1826 89.2288 32.1826H27.7263C26.1477 32.1826 24.8565 33.4738 24.8565 35.0524V42.7037H56.3423C57.5194 42.7037 58.473 43.6573 58.473 44.8344V45.5006C58.473 46.6777 57.5194 47.6312 56.3423 47.6312H4.4165C3.23938 47.6312 2.28125 48.5848 2.28125 49.7711V50.4326C2.28125 51.6097 3.23481 52.5724 4.4165 52.5724H48.9009C50.078 52.5724 51.0361 53.526 51.0361 54.7031V55.3692C51.0361 56.5464 50.0826 57.4999 48.9009 57.4999H10.0557C8.87863 57.4999 7.9205 58.4535 7.9205 59.6306V60.2967C7.9205 61.4739 8.87863 62.4274 10.0557 62.4274H40.0953C41.2724 62.4274 42.2305 63.3901 42.2305 64.5672V65.2288C42.2305 66.4151 41.2769 67.3686 40.0953 67.3686H15.8593C14.6821 67.3686 13.7286 68.3222 13.7286 69.4993V70.1654C13.7286 71.3426 14.6821 72.2961 15.8593 72.2961H24.8565V80.7641Z" fill="#B31F24"/>
</svg>
